<svg width="24" height="24" viewBox="0 0 24 24" fill="none" xmlns="http://www.w3.org/2000/svg">
<path fill-rule="evenodd" clip-rule="evenodd" d="M14.4203 0.0621571C13.1846 0.397603 12.4203 1.54876 12.6003 2.80316C12.6609 3.22573 12.8974 3.74442 13.1767 4.06712C13.3935 4.31766 13.8506 4.62499 14.2022 4.75661C14.5296 4.87916 15.1204 4.92056 15.4985 4.84745C15.9544 4.75928 16.3845 4.52485 16.7372 4.17228C17.2343 3.67542 17.4584 3.13799 17.4584 2.44286C17.4584 1.74598 17.2336 1.20777 16.7372 0.716498C16.231 0.215403 15.6965 -0.00536032 15.003 9.8705e-05C14.8025 0.0016709 14.5403 0.0296213 14.4203 0.0621571ZM15.6562 1.24209C16.3067 1.59649 16.5571 2.3753 16.2327 3.03497C15.7048 4.10843 14.1703 4.02384 13.7457 2.89788C13.5497 2.37801 13.6974 1.82036 14.1354 1.42608C14.4326 1.15855 14.6391 1.08767 15.0752 1.10335C15.3634 1.11374 15.4654 1.13807 15.6562 1.24209ZM12.021 5.0162C11.5709 5.39506 10.7943 6.30571 10.3474 6.97861C10.2619 7.10731 10.1856 7.19331 10.1777 7.16968C10.1654 7.13273 10.3893 5.3499 10.4491 5.0086L10.4702 4.8885H6.37333H2.2765L2.25033 5.07411C2.13769 5.87405 2.0658 6.44101 2.07561 6.45236C2.09097 6.47018 2.92017 6.58853 3.04201 6.59032C3.14064 6.59176 3.1498 6.56871 3.21053 6.16592L3.23853 5.98031H6.22292C8.26171 5.98031 9.2073 5.99472 9.2073 6.02577C9.2073 6.11298 8.28824 12.9901 8.26935 13.0443C8.25438 13.0872 7.61896 13.0989 5.28981 13.0989C3.66151 13.0989 2.32012 13.0897 2.30887 13.0784C2.29766 13.0672 2.3189 12.8265 2.35611 12.5435L2.42382 12.0289L3.95065 12.0071L5.47747 11.9852L5.48973 11.4503L5.50199 10.9153H2.751H0L0.0122577 11.4503L0.0245163 11.9852L0.667965 11.9973C1.16078 12.0066 1.31141 12.0227 1.31141 12.0662C1.31141 12.0974 1.25252 12.5621 1.18054 13.0989C1.10856 13.6356 1.04967 14.1009 1.04967 14.1327C1.04967 14.1801 1.43448 14.1907 3.15451 14.1909C4.42998 14.1911 5.32152 14.2085 5.41719 14.2351C5.80601 14.3432 6.01688 14.6021 6.05453 15.0176L6.07796 15.2764L5.90861 15.3043C5.15374 15.4286 4.65918 15.5819 4.20755 15.8314C3.89363 16.0049 3.3079 16.454 3.32679 16.5068C3.33403 16.5271 3.50429 16.7119 3.70522 16.9177L4.07048 17.2918L4.2287 17.1496C4.79494 16.6407 5.5799 16.379 6.55018 16.3758C7.45851 16.3728 8.07007 16.6258 8.70563 17.2676C9.15046 17.7168 9.41831 18.1334 9.68895 18.7969C9.78662 19.0365 9.87186 19.2378 9.87832 19.2443C9.88761 19.2536 10.6089 19.0216 10.8528 18.9308C10.9612 18.8905 10.5257 17.8923 10.1426 17.3028C9.47349 16.2733 8.65956 15.6645 7.59322 15.396L7.1788 15.2917L7.15097 14.9705C7.13565 14.7938 7.09177 14.5608 7.05347 14.4527C7.01512 14.3446 6.9835 14.2415 6.98315 14.2234C6.9828 14.2054 7.75302 14.1906 8.69472 14.1906L10.407 14.1906L11.4212 14.3955C12.1097 14.5346 12.4355 14.6184 12.4355 14.6563C12.4355 14.6871 12.2293 15.6408 11.9774 16.7756C11.521 18.8319 11.49 18.9932 11.5521 18.9962C11.5701 18.9971 11.8002 19.0451 12.0635 19.1029C12.3268 19.1607 12.5456 19.2042 12.5499 19.1996C12.5815 19.1647 13.7494 13.7882 13.7295 13.7684C13.7155 13.7544 12.9524 13.5914 12.0337 13.4061C10.9637 13.1903 10.2971 13.0352 10.1791 12.9746C9.79369 12.7766 9.51266 12.4277 9.51266 12.1474C9.51266 12.0785 9.57138 11.5842 9.64319 11.049L9.77367 10.0758L10 9.65485C10.5168 8.69379 11.0723 7.80891 11.58 7.1385C11.9325 6.67308 12.3427 6.19867 12.3928 6.19867C12.4151 6.19867 13.1356 6.75038 13.9939 7.42472C14.8522 8.09907 15.5938 8.66576 15.6418 8.6841C15.6898 8.70244 16.5879 8.82337 17.6376 8.95281C18.9588 9.11576 19.5461 9.20428 19.5461 9.24044C19.5461 9.32979 19.3246 9.56143 19.1589 9.64532C18.852 9.80071 18.5774 9.82346 17.0077 9.82346H15.477L14.5125 9.18188C13.9819 8.829 13.5242 8.52269 13.4953 8.50124C13.4572 8.47294 13.221 8.90608 12.6378 10.0734L11.8328 11.6846L13.3173 12.4245C14.1337 12.8314 14.8567 13.2151 14.9239 13.277C15.1623 13.4967 15.1656 13.4779 14.4003 16.287C14.013 17.7088 13.7032 18.8933 13.7117 18.9192C13.7256 18.9607 14.5602 19.2116 14.688 19.2126C14.7152 19.2128 14.7782 19.0632 14.8279 18.88C14.8776 18.6969 14.9241 18.5426 14.9311 18.5372C14.9381 18.5317 15.0812 18.4936 15.2492 18.4524C16.0727 18.2505 17.0629 17.6066 17.7008 16.8582C18.6081 15.7936 19.0811 14.5815 19.1763 13.077C19.1987 12.7216 19.1435 11.716 19.0994 11.6779C19.0817 11.6627 18.0659 11.8147 18.0458 11.8357C18.036 11.8459 18.0476 12.0507 18.0716 12.2909C18.1853 13.4312 17.8586 14.7499 17.2318 15.6809C16.9909 16.0387 16.4565 16.5933 16.1217 16.8331C15.8394 17.0351 15.3215 17.3128 15.2884 17.2798C15.2773 17.2686 15.4764 16.4953 15.7308 15.5613C16.1706 13.9472 16.1925 13.8472 16.1714 13.5402C16.1548 13.2985 16.1152 13.1481 16.0142 12.9426C15.7972 12.5015 15.5762 12.3385 14.3816 11.7385C13.8031 11.4479 13.3236 11.2049 13.3162 11.1984C13.3037 11.1875 13.8202 10.1302 13.8579 10.0894C13.867 10.0795 14.1592 10.2613 14.5071 10.4934L15.1396 10.9153H16.881C18.8492 10.9153 19.0945 10.8897 19.6231 10.6293C20.0052 10.441 20.3303 10.129 20.5002 9.78778C20.6604 9.4657 20.7108 9.24498 20.748 8.70109C20.7784 8.2569 20.7782 8.25563 20.6749 8.23288C20.6179 8.22034 19.5562 8.08422 18.3156 7.9304L16.0598 7.65077L14.9129 6.75418C14.2821 6.26108 13.4519 5.61032 13.068 5.30806C12.6841 5.00581 12.3602 4.75867 12.3482 4.75884C12.3362 4.75902 12.189 4.87484 12.021 5.0162ZM0.0122577 8.17484L0.0245163 8.70982L0.886084 8.72166C1.88262 8.73537 1.78041 8.65873 1.68571 9.32123C1.64989 9.57165 1.64483 9.72424 1.67175 9.7418C1.73334 9.78184 2.66174 9.88369 2.69175 9.85368C2.70571 9.83967 2.74942 9.58641 2.7889 9.29088L2.86071 8.75349L4.71437 8.73166L6.56807 8.70982L6.58033 8.17484L6.59258 7.63985H3.29629H0L0.0122577 8.17484ZM20.2143 11.2136C19.994 11.3497 19.8013 11.474 19.786 11.4897C19.7707 11.5054 19.846 11.7019 19.9533 11.9264C20.3392 12.7338 20.4976 13.3858 20.5357 14.3229C20.5625 14.9819 20.5145 15.5809 20.3918 16.1208C20.332 16.3843 20.3128 16.418 20.2219 16.418C20.0507 16.418 19.4439 16.653 19.1261 16.8424C18.7991 17.0374 18.1371 17.5826 18.1586 17.6393C18.1659 17.6587 18.3549 17.827 18.5784 18.0133L18.9849 18.3519L19.1674 18.1753C19.4336 17.9175 19.8702 17.652 20.191 17.5528C20.6903 17.3984 21.3099 17.4505 21.8001 17.688L22.0042 17.787L21.7894 17.8884C21.6713 17.9442 21.182 18.1744 20.7021 18.3999C19.7798 18.8334 18.6234 19.4332 17.8184 19.8955L17.334 20.1738H10.0623H2.79065L2.81857 20.01C2.83392 19.92 2.88553 19.6743 2.93326 19.4641L3.02002 19.082H3.71569H4.4114L4.39914 18.547L4.38688 18.012H2.2057H0.0245163L0.0122577 18.547L0 19.082H0.944714H1.88943L1.85885 19.2239C1.74124 19.7697 1.69871 20.0977 1.6748 20.6433L1.64758 21.2656H2.21464H2.78166L2.86132 21.5604C2.90512 21.7225 3.02923 22.032 3.13711 22.2482C3.29791 22.5705 3.40452 22.7124 3.72917 23.0361C4.39548 23.7004 5.0911 23.9896 6.02277 23.9896C6.94118 23.9896 7.64884 23.6993 8.29548 23.0573C8.73874 22.6172 8.94996 22.2743 9.1365 21.6918L9.27273 21.2665L13.4587 21.266L17.6447 21.2656L18.0392 21.0301C19.3827 20.2281 21.6974 19.0852 23.1848 18.4893L23.6901 18.2869L23.5072 17.9311C23.1571 17.25 22.4404 16.6673 21.7491 16.5019C21.6291 16.4733 21.5151 16.4356 21.4958 16.4183C21.4765 16.401 21.4954 16.2023 21.5379 15.9766C21.5964 15.6659 21.6154 15.3386 21.6162 14.6274C21.6174 13.5867 21.5509 13.115 21.2886 12.3038C21.1484 11.8702 20.7315 10.9913 20.6585 10.9754C20.6345 10.9702 20.4346 11.0773 20.2143 11.2136ZM23.1669 19.4104C22.9389 19.54 22.7364 19.6522 22.7167 19.6598C22.697 19.6674 22.7314 19.824 22.7931 20.0078C23.1904 21.1927 22.5703 22.4254 21.3783 22.82C21.209 22.8761 21.0165 22.8983 20.7239 22.8955C20.2585 22.8911 19.9397 22.8006 19.5835 22.5718C19.3282 22.4077 18.9344 21.9896 18.8322 21.774C18.7463 21.5928 18.8192 21.5799 18.118 21.8997L17.7588 22.0636L17.8897 22.3095C18.265 23.0144 18.9109 23.5596 19.6818 23.8221C21.4959 24.4398 23.4331 23.3941 23.9122 21.5385C24.0209 21.1173 24.0302 20.3633 23.9314 19.9773C23.8547 19.678 23.6506 19.168 23.6091 19.172C23.5938 19.1735 23.3948 19.2808 23.1669 19.4104ZM8.09651 21.3839C7.9724 21.879 7.50397 22.423 6.98249 22.6778C6.34236 22.9906 5.68399 22.9889 5.04909 22.673C4.53978 22.4195 4.07092 21.8701 3.94903 21.3839L3.91937 21.2656H6.02277H8.12617L8.09651 21.3839Z" fill="#747474"/>
</svg>
