<svg width="24" height="24" viewBox="0 0 24 24" fill="none" xmlns="http://www.w3.org/2000/svg">
<path fill-rule="evenodd" clip-rule="evenodd" d="M13.4797 0.0122345C13.441 0.0215497 13.2508 0.054785 13.057 0.0861011C11.8474 0.281628 10.6435 1.02586 9.8597 2.06262C9.49659 2.54289 9.14485 3.26382 8.98586 3.85372C8.87197 4.27623 8.85999 4.39883 8.85999 5.13993C8.85999 5.88033 8.87206 6.00414 8.98568 6.42721C9.37142 7.86368 10.37 9.09273 11.695 9.76179C12.0884 9.96045 12.7483 10.1707 13.2075 10.2437C13.7347 10.3275 14.7597 10.2797 15.2645 10.1477C16.165 9.91224 16.8875 9.5055 17.574 8.84758C18.2636 8.18658 18.7596 7.349 19.0071 6.42721C19.1207 6.00414 19.1328 5.88033 19.1328 5.13993C19.1328 4.40402 19.1203 4.27455 19.0101 3.86641C18.4949 1.958 16.9818 0.517318 15.0556 0.101314C14.7507 0.0354524 13.6435 -0.027133 13.4797 0.0122345ZM15.0532 1.06509C16.8501 1.53109 18.1205 3.09591 18.2092 4.95269C18.3551 8.00631 15.317 10.1707 12.4366 9.06521C11.154 8.57295 10.1404 7.37049 9.85777 6.00601C9.37974 3.69756 10.9021 1.43831 13.2324 0.997919C13.7223 0.905328 14.5556 0.936083 15.0532 1.06509ZM13.6594 1.94335C13.4842 2.05171 13.4328 2.19205 13.4328 2.5619C13.4328 2.87539 13.4299 2.88288 13.2871 2.94181C13.207 2.97486 13.0412 3.09933 12.9185 3.21841C12.2307 3.88611 12.4142 5.03142 13.2781 5.46245C13.3867 5.51666 13.6192 5.58116 13.7947 5.60574C14.0615 5.64314 14.135 5.67394 14.243 5.79382C14.3882 5.95504 14.4056 6.10984 14.3012 6.31112C14.1322 6.63678 13.7015 6.62531 13.3858 6.28678C13.1179 5.99951 12.8033 5.96407 12.5842 6.19653C12.4253 6.36509 12.4335 6.61263 12.6055 6.83736C12.7416 7.01524 13.2538 7.38682 13.3628 7.38682C13.4059 7.38682 13.4278 7.50142 13.4397 7.78878C13.455 8.16144 13.4658 8.19894 13.588 8.3037C13.7668 8.45691 14.0381 8.45691 14.2168 8.3037C14.3389 8.19908 14.3499 8.16116 14.365 7.79267C14.3802 7.42633 14.3898 7.39253 14.4864 7.36838C14.5441 7.35396 14.6909 7.25472 14.8127 7.1479C15.7242 6.34824 15.3006 4.89141 14.1035 4.70904C13.7053 4.64833 13.5833 4.59201 13.4992 4.43005C13.3906 4.22076 13.4169 4.0697 13.5925 3.89477C13.8234 3.66456 14.0682 3.69503 14.4344 3.99968C14.7669 4.27623 15.2865 3.96789 15.1942 3.5488C15.1581 3.38538 14.8691 3.11506 14.5817 2.97589L14.3721 2.87436V2.55155C14.3721 2.19359 14.2901 1.99858 14.1038 1.914C13.9478 1.84317 13.8063 1.85249 13.6594 1.94335ZM21.6009 10.0475C21.2344 10.1681 20.9963 10.346 20.4538 10.9047C20.1951 11.1712 19.5336 11.8491 18.9839 12.4113L17.9844 13.4334L17.7716 13.2379C17.4979 12.9864 17.1239 12.8174 16.7289 12.7666C16.5564 12.7444 15.255 12.7256 13.8368 12.7247L11.2585 12.7232L10.8196 12.5831C10.1573 12.3717 9.64717 12.2966 8.8769 12.2974C7.55039 12.2986 6.48502 12.6003 5.45854 13.2654C4.93217 13.6064 4.2223 14.3131 3.88193 14.835L3.61896 15.2382L3.29399 15.2614C2.73521 15.3012 2.64564 15.3666 1.25639 16.7482L0 17.9978V18.2206V18.4435L2.70731 21.1654C4.19633 22.6626 5.4592 23.9131 5.51363 23.9443C5.6466 24.0207 5.80202 24.0184 5.95551 23.938C6.02525 23.9014 6.6449 23.3064 7.33246 22.6156C8.75821 21.1833 8.7608 21.1794 8.72923 20.5017L8.71251 20.1425L9.06726 19.8149C9.63792 19.2878 9.34287 19.3229 13.1992 19.3232C15.2306 19.3234 16.6635 19.3044 16.9044 19.2743C17.6927 19.1759 18.4941 18.8323 19.1031 18.3316C19.45 18.0466 23.7524 12.9007 23.8901 12.6062C23.9847 12.404 23.9997 12.2989 24 11.8338C24.0004 11.339 23.9897 11.2728 23.867 11.0146C23.6859 10.6335 23.3653 10.3165 22.9786 10.1361C22.5744 9.94758 22.0139 9.91154 21.6009 10.0475ZM22.6105 11.0037C22.9148 11.1771 23.0756 11.4168 23.0983 11.7307C23.1112 11.9078 23.0931 12.0599 23.0457 12.1728C22.9586 12.3807 18.9988 17.1214 18.5743 17.5261C18.233 17.8515 17.7938 18.0988 17.2834 18.253C16.9346 18.3585 16.9034 18.3595 13.2684 18.3867C10.7309 18.4057 9.55864 18.4304 9.45437 18.467C9.12916 18.5813 8.73416 18.8282 8.42178 19.1123L8.09446 19.4101L6.25483 17.5762L4.41515 15.7422L4.64158 15.3912C5.54153 13.9963 7.03384 13.235 8.86976 13.2342C9.58658 13.2339 10.0352 13.3039 10.5954 13.5036L10.967 13.636L13.8555 13.6594C16.7358 13.6828 16.7446 13.6831 16.9409 13.7877C17.6175 14.1482 17.6175 15.0898 16.9409 15.4503C16.7472 15.5535 16.7089 15.5556 14.5911 15.5786L12.4382 15.602L12.3249 15.7334C12.1651 15.9186 12.1739 16.1436 12.3486 16.3385L12.4856 16.4914L14.4421 16.5051C16.5381 16.5197 16.9024 16.4951 17.3048 16.3115C17.9567 16.014 18.4622 15.1945 18.4046 14.5283C18.3916 14.3771 18.469 14.289 19.9769 12.7387C20.9095 11.7801 21.6424 11.0648 21.7559 11.0029C22.0139 10.862 22.3625 10.8623 22.6105 11.0037ZM10.4685 15.5552C10.2212 15.6892 10.1815 16.0448 10.3893 16.2666C10.5928 16.484 10.977 16.4394 11.1101 16.1829C11.3399 15.74 10.9078 15.3173 10.4685 15.5552ZM5.69202 18.3265L7.79664 20.4256L7.7973 20.6352L7.798 20.8448L6.79045 21.8395C6.23628 22.3866 5.76566 22.8342 5.74457 22.8342C5.72349 22.8342 4.67066 21.8018 3.40497 20.54L1.10374 18.2458L2.14581 17.2099L3.18784 16.1741L3.38759 16.2007C3.57777 16.2262 3.68847 16.3283 5.69202 18.3265Z" fill="#747474"/>
</svg>
