<svg width="25" height="30" viewBox="0 0 25 30" fill="none" xmlns="http://www.w3.org/2000/svg">
<path fill-rule="evenodd" clip-rule="evenodd" d="M8.42648 0.062064C8.33033 0.0976228 7.7561 0.743834 7.1504 1.49807L6.04928 2.86949L4.65825 3.28303C2.82568 3.82798 2.46695 3.99039 2.28558 4.35767C2.19677 4.53743 2.13369 5.33227 2.13369 6.27108V7.87713L1.06685 9.23612C0.480081 9.98359 0 10.7015 0 10.8316C0 11.158 0.176963 11.4376 1.18873 12.7098L2.06701 13.8141L2.13369 15.6288C2.19277 17.2365 2.23078 17.4704 2.46708 17.6784C2.61377 17.8076 3.49099 18.1433 4.41634 18.4246L6.09889 18.9358L6.88342 19.944C8.10723 21.5165 8.36727 21.7563 8.84869 21.7561C9.07939 21.756 9.89833 21.5636 10.6685 21.3284C11.4386 21.0932 12.2219 20.8995 12.4093 20.8979C12.5965 20.8963 13.3734 21.0888 14.1357 21.3256C14.898 21.5625 15.7137 21.7563 15.9484 21.7563C16.4392 21.7563 16.722 21.4966 17.9366 19.9313L18.7103 18.9342L20.3904 18.4237C21.3144 18.143 22.1904 17.8076 22.3371 17.6784C22.5733 17.4704 22.6114 17.2365 22.6705 15.6319L22.7372 13.8201L23.617 12.7088C24.6369 11.4207 24.8042 11.1558 24.8042 10.8284C24.8042 10.6966 24.3241 9.9767 23.7373 9.22861L22.6705 7.86839V6.25483C22.6705 4.00909 22.714 4.06668 20.5172 3.40139L18.7608 2.86949L17.6518 1.48835C16.8558 0.49726 16.4404 0.0835962 16.1801 0.0233062C15.9245 -0.0358765 15.313 0.0929473 14.107 0.460224L12.3966 0.981056L10.7655 0.479542C9.18861 -0.0053623 8.79788 -0.0751266 8.42648 0.062064ZM12.4269 3.05405C12.5642 3.05405 13.3053 2.86592 14.0737 2.63608L15.4709 2.21799L16.2782 3.24981C16.7221 3.81727 17.1709 4.36037 17.2753 4.45672C17.3797 4.55306 18.1262 4.83507 18.9342 5.08349L20.4034 5.53517V6.98803V8.44102L20.8604 9.03888C21.1118 9.36765 21.5364 9.92367 21.8041 10.2745L22.2905 10.9121L21.3803 12.0555L20.4701 13.1989L20.4034 14.7399L20.3368 16.2809L18.8698 16.7172L17.4029 17.1535L16.5593 18.1937C16.0952 18.7659 15.6693 19.3089 15.6128 19.4004C15.5299 19.5345 15.2068 19.4796 13.9527 19.1184L12.3956 18.6699L10.9124 19.1122C9.83819 19.4326 9.38851 19.5175 9.28196 19.4202C9.20115 19.3463 8.7448 18.8065 8.26806 18.2208L7.40124 17.1558L5.93433 16.7084L4.46742 16.261L4.40074 14.7276L4.33406 13.1942L3.42551 12.0485L2.51696 10.9028L2.89209 10.4184C3.09839 10.152 3.52233 9.59798 3.83398 9.18715L4.40074 8.44029V6.98779V5.53517L5.84858 5.09013C6.64485 4.84528 7.38591 4.57766 7.49539 4.49547C7.60488 4.41328 8.06509 3.86846 8.51797 3.28487L9.34157 2.22377L10.7594 2.63891C11.5393 2.86727 12.2897 3.05405 12.4269 3.05405ZM10.753 4.72568C7.41245 5.4718 5.10619 8.59286 5.58481 11.7197C5.87045 13.586 6.99198 15.2004 8.7252 16.2407C9.83259 16.9054 10.9685 17.2038 12.3919 17.2038C14.3253 17.2038 15.6998 16.7025 17.1141 15.4819C19.572 13.3606 19.9924 9.9543 18.1164 7.36208C16.5197 5.15608 13.5643 4.09793 10.753 4.72568ZM15.625 8.22546C16.2011 8.37311 16.8419 9.00025 17.071 9.6408C17.1709 9.91998 17.2124 10.5152 17.178 11.1775C17.131 12.0845 17.0661 12.3364 16.7743 12.7431C16.3313 13.3608 15.703 13.6356 14.7338 13.6356C13.1974 13.6356 12.3998 12.832 12.2971 11.1808C12.2003 9.62431 12.6073 8.7725 13.6584 8.33201C14.2713 8.07522 14.9048 8.0409 15.625 8.22546ZM10.5351 10.8671V13.5125H9.66829H8.80148V11.9745V10.4365H8.20138H7.60128V9.88282C7.60128 9.34661 7.61421 9.32913 8.01161 9.32913C8.45969 9.32913 9.20155 8.7597 9.20155 8.4158C9.20155 8.26495 9.35011 8.22177 9.86833 8.22177H10.5351V10.8671ZM14.21 9.60265C14.0638 9.79509 14.0024 10.1693 14.0024 10.8671C14.0024 11.9788 14.2057 12.4052 14.7358 12.4052C15.2659 12.4052 15.4693 11.9788 15.4693 10.8671C15.4693 9.75547 15.2659 9.32913 14.7358 9.32913C14.558 9.32913 14.3259 9.44996 14.21 9.60265ZM5.7343 24.2662C5.7343 29.3245 5.76564 29.5594 6.48042 29.8599C7.11986 30.1287 7.50499 30.0028 9.81458 28.7696C11.0821 28.0929 12.2447 27.5392 12.3984 27.5392C12.5518 27.5392 13.7238 28.0929 15.0025 28.7696C16.509 29.5668 17.4663 30 17.7216 30C18.2487 30 18.907 29.4749 19.0037 28.9775C19.0457 28.7616 19.0628 26.5645 19.0416 24.0949L19.0032 19.6048L18.1024 20.7775C17.6068 21.4223 17.0275 22.0449 16.8148 22.1608C16.2365 22.4761 15.5737 22.4198 13.9083 21.9141L12.4021 21.4567L10.8958 21.9141C9.22595 22.4212 8.51343 22.4785 7.97267 22.1496C7.77357 22.0284 7.24482 21.4612 6.79768 20.8892C6.35067 20.3172 5.92846 19.7965 5.85952 19.7322C5.78137 19.6594 5.7343 21.3656 5.7343 24.2662Z" fill="#8C8C8C"/>
</svg>
