<svg width="34" height="30" viewBox="0 0 34 30" fill="none" xmlns="http://www.w3.org/2000/svg">
<path fill-rule="evenodd" clip-rule="evenodd" d="M15.9461 0.359636C14.0416 1.16028 13.4674 1.38968 12.0121 1.93101C8.81128 3.12168 5.38872 4.12543 1.88044 4.90238C0.644919 5.17601 0.407215 5.24758 0.219312 5.4027L0 5.58369L0.0312521 9.87604C0.0575944 13.5023 0.0827678 14.2731 0.193437 14.8431C0.821756 18.0791 2.16163 20.6726 4.50041 23.18C7.25053 26.1284 11.8151 28.8516 15.6205 29.8142C16.9586 30.1527 17.9324 30.0465 19.8993 29.3476C23.4582 28.0829 27.1215 25.7295 29.4996 23.18C31.8384 20.6726 33.1782 18.0791 33.8066 14.8431C33.9172 14.2731 33.9424 13.5023 33.9687 9.87604L34 5.58369L33.7807 5.4027C33.5927 5.24758 33.3552 5.17607 32.1196 4.90255C27.3616 3.84922 22.9626 2.42658 17.9742 0.327897C17.5456 0.147551 17.1064 0 16.9982 0C16.89 0 16.4166 0.161866 15.9461 0.359636ZM18.4293 1.95846C22.66 3.69974 26.9201 5.04412 31.5545 6.10044L32.3534 6.28255L32.353 9.37478C32.3528 11.0755 32.3166 12.9026 32.2726 13.435C31.8978 17.9616 29.4987 21.8872 25.2112 24.9895C22.9279 26.6414 20.4374 27.8924 18.153 28.5348C17.1672 28.8119 16.8328 28.8119 15.847 28.5348C13.5626 27.8924 11.0721 26.6414 8.78883 24.9895C4.50127 21.8872 2.10216 17.9616 1.72745 13.435C1.68342 12.9026 1.64718 11.0755 1.64702 9.37478L1.64663 6.28255L2.44547 6.1015C3.90077 5.77172 6.49416 5.1005 7.76195 4.72543C10.3812 3.9506 13.6892 2.77319 15.9089 1.8257C16.4447 1.59695 16.9301 1.40945 16.9875 1.40892C17.045 1.40845 17.6938 1.65574 18.4293 1.95846ZM10.9465 5.0863C10.7152 5.12021 10.4012 5.3675 10.3542 5.55289C10.2943 5.7885 10.4396 6.09199 10.6656 6.20346C10.9226 6.33019 11.3771 6.32432 11.6478 6.19079C12.1444 5.94585 12.0615 5.30455 11.5108 5.13136C11.3606 5.08413 11.2103 5.04905 11.1768 5.05345C11.1433 5.05785 11.0396 5.07263 10.9465 5.0863ZM8.42705 5.86231C8.31989 5.88947 7.67107 6.06958 6.98524 6.26254C6.2994 6.45556 5.28437 6.72655 4.72962 6.86477C4.14058 7.0115 3.64865 7.17049 3.54733 7.24676C3.30557 7.42875 3.26754 7.70954 3.29677 9.09376C3.31867 10.1253 3.34181 10.3179 3.45973 10.4486C3.71263 10.7287 4.12951 10.8043 4.54023 10.6444C4.93256 10.4917 4.99787 10.2764 4.99787 9.13635V8.11933L5.56291 7.9841C7.1595 7.602 9.16292 7.00329 9.37444 6.845C9.98468 6.38839 9.27133 5.64846 8.42705 5.86231ZM23.8194 9.17237C23.6479 9.21455 23.3674 9.31734 23.1959 9.40088C23.0244 9.48437 20.9558 11.0068 18.5989 12.7838L14.3138 16.0149L12.6368 14.7576C10.6316 13.2542 10.4581 13.171 9.32332 13.171C8.73576 13.171 8.55869 13.1944 8.23221 13.3153C6.84028 13.8309 6.26332 15.009 6.89507 16.0458C7.08242 16.3532 7.46213 16.6628 9.89209 18.4894C13.1397 20.9305 13.108 20.913 14.2722 20.9144C15.5867 20.9159 15.1577 21.1828 21.4191 16.4688C27.6577 11.772 27.3265 12.072 27.3265 11.1176C27.3265 10.6688 27.2958 10.5412 27.1219 10.2669C26.8595 9.85298 26.35 9.46953 25.8068 9.27715C25.3001 9.09769 24.3312 9.04664 23.8194 9.17237ZM25.0028 10.3882C25.5192 10.5355 25.7948 10.9339 25.6507 11.3249C25.5918 11.4845 24.4147 12.4012 20.1773 15.5872C15.2867 19.2642 14.7499 19.65 14.4717 19.688C14.2308 19.7207 14.0949 19.702 13.8415 19.6008C13.652 19.5251 12.4691 18.6786 10.9804 17.5534C8.31116 15.536 8.19628 15.4266 8.32262 15.0227C8.40702 14.7527 8.72235 14.4989 9.05771 14.4309C9.64955 14.3109 9.77714 14.3798 11.8952 15.962C12.9668 16.7625 13.9425 17.4455 14.0633 17.4797C14.1842 17.5139 14.3771 17.5256 14.4919 17.5056C14.6313 17.4814 16.2462 16.3092 19.3381 13.9882C21.8885 12.0736 24.0805 10.4665 24.2091 10.4168C24.4847 10.3102 24.7019 10.3024 25.0028 10.3882ZM26.1079 20.3588C26.0378 20.3897 25.7414 20.6687 25.4494 20.9788C24.3865 22.1075 23.16 23.0982 21.655 24.0432C20.8627 24.5408 20.7123 24.6906 20.7261 24.9679C20.7397 25.239 20.8536 25.3835 21.1424 25.4959C21.5465 25.6532 21.8252 25.5668 22.7468 24.9984C24.6972 23.7955 27.3655 21.4479 27.3655 20.9348C27.3655 20.6937 27.1602 20.4218 26.928 20.3554C26.6796 20.2843 26.2737 20.286 26.1079 20.3588ZM19.1345 25.4022C18.6187 25.5591 18.4773 26.0885 18.8641 26.4144C19.4713 26.926 20.5976 26.3715 20.2443 25.7349C20.0678 25.417 19.5734 25.2687 19.1345 25.4022Z" fill="url(#paint0_linear_1467_735)"/>
<defs>
<linearGradient id="paint0_linear_1467_735" x1="12.5477" y1="1.10844" x2="24.2472" y2="34.0394" gradientUnits="userSpaceOnUse">
<stop stop-color="#6A4D03"/>
<stop offset="0.159312" stop-color="#F6C236" stop-opacity="0.816794"/>
<stop offset="0.26322" stop-color="#CBB05F" stop-opacity="0.63"/>
<stop offset="0.346742" stop-color="#C5A963" stop-opacity="0.79"/>
<stop offset="0.483516" stop-color="#F6C236" stop-opacity="0.75"/>
<stop offset="0.631451" stop-color="#F5D064" stop-opacity="0.9"/>
<stop offset="0.75" stop-color="#F3E098" stop-opacity="0.9"/>
<stop offset="0.833333" stop-color="#B69C51" stop-opacity="0.88"/>
<stop offset="0.911458" stop-color="#A07D31" stop-opacity="0.95"/>
<stop offset="1" stop-color="#6A4D03" stop-opacity="0"/>
</linearGradient>
</defs>
</svg>
