<svg width="22" height="24" viewBox="0 0 22 24" fill="none" xmlns="http://www.w3.org/2000/svg">
<path d="M6.5 3.91846L8 0.918457L11 2.91846L14 0.918457L15.5 3.91846H19V7.91846L22 9.41846L20.5 11.9185L22 15.4185L19 16.9185L19.5 20.9185H15.5L14 23.4185L11 22.4185L8 23.9185L6 20.9185H2.5V16.9185L0 15.4185L2 11.9185L0 9.41846L2.5 7.91846V3.91846H6.5Z" fill="#CB690E"/>
<path fill-rule="evenodd" clip-rule="evenodd" d="M9.52687 7.03455C9.19394 7.14096 9.001 7.38391 9 7.69784C8.99916 7.9662 9.46337 13.9032 9.50441 14.1491C9.53903 14.3563 9.7781 14.594 10.0373 14.6788C10.2735 14.756 11.7265 14.756 11.9627 14.6788C12.2219 14.594 12.461 14.3563 12.4956 14.1491C12.5377 13.8965 13.0008 7.96261 13 7.68539C12.9993 7.43108 12.8815 7.25129 12.6141 7.09602C12.4732 7.0142 12.3946 7.00938 11.062 7.00118C10.2017 6.99587 9.60743 7.00876 9.52687 7.03455ZM12.2105 7.74109C12.2112 7.96945 11.7322 14.0104 11.7091 14.065C11.6779 14.1385 10.3221 14.1385 10.2908 14.065C10.2674 14.0101 9.78815 7.96735 9.78926 7.74109L9.78989 7.6072H11H12.2101L12.2105 7.74109ZM10.5643 16.1775C9.89638 16.3094 9.40349 16.7105 9.22892 17.2645C9.02373 17.9156 9.44143 18.5647 10.2604 18.8676C11.369 19.2776 12.6501 18.6927 12.8207 17.6986C12.8889 17.3012 12.5797 16.7265 12.1563 16.464C11.7302 16.1997 11.0614 16.0794 10.5643 16.1775ZM11.4639 16.8601C12.0678 17.0957 12.2221 17.6998 11.7792 18.0947C11.5521 18.2972 11.3397 18.3731 11 18.3731C9.91606 18.3731 9.56791 17.2378 10.5361 16.8601C10.6868 16.8013 10.8956 16.7531 11 16.7531C11.1044 16.7531 11.3132 16.8013 11.4639 16.8601Z" fill="#1A453B"/>
<path d="M12.2105 7.74109C12.2112 7.96945 11.7322 14.0104 11.7091 14.065C11.6779 14.1385 10.3221 14.1385 10.2908 14.065C10.2674 14.0101 9.78815 7.96735 9.78926 7.74109L9.78989 7.6072H11H12.2101L12.2105 7.74109Z" fill="#1A453B"/>
<path d="M11.4639 16.8601C12.0678 17.0957 12.2221 17.6998 11.7792 18.0947C11.5521 18.2972 11.3397 18.3731 11 18.3731C9.91606 18.3731 9.56791 17.2378 10.5361 16.8601C10.6868 16.8013 10.8956 16.7531 11 16.7531C11.1044 16.7531 11.3132 16.8013 11.4639 16.8601Z" fill="#1A453B"/>
</svg>
