<svg width="22" height="29" viewBox="0 0 22 29" fill="none" xmlns="http://www.w3.org/2000/svg">
<path d="M6.5 4.95923L8 1.95923L11 3.95923L14 1.95923L15.5 4.95923H19V8.95923L22 10.4592L20.5 12.9592L22 16.4592L19 17.9592L19.5 21.9592H15.5L14 24.4592L11 23.4592L8 24.9592L6 21.9592H2.5V17.9592L0 16.4592L2 12.9592L0 10.4592L2.5 8.95923V4.95923H6.5Z" fill="#FBD407"/>
<path d="M11.4987 15.5013V10.2533L8 11.128V15.5013C8 16.5801 8.33529 17.4402 9.00587 18.0816C9.7056 18.6939 10.4928 19 11.3675 19C12.038 19 12.694 18.8251 13.3355 18.4752C13.9769 18.0962 14.5308 17.5422 14.9973 16.8133C14.5308 17.0174 14.0498 17.1195 13.5541 17.1195C13.0293 17.1195 12.5483 16.9883 12.1109 16.7259C11.7028 16.4635 11.4987 16.0553 11.4987 15.5013ZM11.4987 8.54773V7.67307L8 8.59147V9.46613L11.4987 8.54773Z" fill="#1A453B"/>
</svg>
